<svg width="130" height="30" viewBox="0 0 130 30" fill="none" xmlns="http://www.w3.org/2000/svg">
<path d="M14.88 29.4C12.88 29.4 11.0267 29.04 9.32 28.32C7.61333 27.5733 6.12 26.5467 4.84 25.24C3.58667 23.9333 2.61333 22.4133 1.92 20.68C1.22667 18.9467 0.88 17.0933 0.88 15.12C0.88 13.12 1.22667 11.2533 1.92 9.52C2.61333 7.78667 3.58667 6.28 4.84 5C6.12 3.69333 7.6 2.68 9.28 1.96C10.9867 1.21333 12.84 0.839998 14.84 0.839998C17.0267 0.839998 18.9467 1.21333 20.6 1.96C22.2533 2.70667 23.72 3.72 25 5L22.4 7.6C21.52 6.61333 20.44 5.84 19.16 5.28C17.9067 4.72 16.4667 4.44 14.84 4.44C13.3733 4.44 12.0267 4.70667 10.8 5.24C9.57333 5.74666 8.50667 6.48 7.6 7.44C6.69333 8.4 5.98667 9.53333 5.48 10.84C5 12.1467 4.76 13.5733 4.76 15.12C4.76 16.6667 5 18.0933 5.48 19.4C5.98667 20.7067 6.69333 21.84 7.6 22.8C8.50667 23.76 9.57333 24.5067 10.8 25.04C12.0267 25.5467 13.3733 25.8 14.84 25.8C16.5733 25.8 18.08 25.52 19.36 24.96C20.64 24.3733 21.72 23.5867 22.6 22.6L25.2 25.16C23.92 26.4933 22.4133 27.5333 20.68 28.28C18.9733 29.0267 17.04 29.4 14.88 29.4ZM37.295 29.4C35.4283 29.4 33.7483 28.96 32.255 28.08C30.7617 27.2 29.575 26.0133 28.695 24.52C27.815 23 27.375 21.3067 27.375 19.44C27.375 17.6 27.815 15.9467 28.695 14.48C29.575 12.9867 30.7617 11.8 32.255 10.92C33.7483 10.04 35.4283 9.6 37.295 9.6C39.135 9.6 40.8017 10.04 42.295 10.92C43.815 11.7733 45.015 12.9467 45.895 14.44C46.775 15.9333 47.215 17.6 47.215 19.44C47.215 21.3067 46.775 23 45.895 24.52C45.015 26.0133 43.815 27.2 42.295 28.08C40.8017 28.96 39.135 29.4 37.295 29.4ZM37.295 25.92C38.495 25.92 39.5617 25.64 40.495 25.08C41.4283 24.52 42.1617 23.76 42.695 22.8C43.2283 21.8133 43.495 20.6933 43.495 19.44C43.495 18.2133 43.215 17.12 42.655 16.16C42.1217 15.2 41.3883 14.4533 40.455 13.92C39.5483 13.36 38.495 13.08 37.295 13.08C36.095 13.08 35.0283 13.36 34.095 13.92C33.1617 14.4533 32.4283 15.2 31.895 16.16C31.3617 17.12 31.095 18.2133 31.095 19.44C31.095 20.6933 31.3617 21.8133 31.895 22.8C32.4283 23.76 33.1617 24.52 34.095 25.08C35.0283 25.64 36.095 25.92 37.295 25.92ZM64.8113 29V17.92C64.8113 16.48 64.3579 15.2933 63.4513 14.36C62.5446 13.4267 61.3713 12.96 59.9313 12.96C58.9713 12.96 58.1179 13.1733 57.3713 13.6C56.6246 14.0267 56.0379 14.6133 55.6113 15.36C55.1846 16.1067 54.9713 16.96 54.9713 17.92L53.4913 17.08C53.4913 15.64 53.8113 14.36 54.4513 13.24C55.0913 12.12 55.9846 11.24 57.1313 10.6C58.2779 9.93333 59.5713 9.6 61.0113 9.6C62.4513 9.6 63.7179 9.96 64.8113 10.68C65.9313 11.4 66.8113 12.3467 67.4513 13.52C68.0913 14.6667 68.4113 15.8933 68.4113 17.2V29H64.8113ZM51.3713 29V10H54.9713V29H51.3713ZM76.0709 29V2.04H79.6709V29H76.0709ZM71.3909 13.28V10H84.3509V13.28H71.3909ZM87.9775 29V10H91.5775V29H87.9775ZM91.5775 18.16L90.2175 17.56C90.2175 15.1333 90.7775 13.2 91.8975 11.76C93.0175 10.32 94.6308 9.6 96.7375 9.6C97.6975 9.6 98.5642 9.77333 99.3375 10.12C100.111 10.44 100.831 10.9867 101.498 11.76L99.1375 14.2C98.7375 13.7733 98.2975 13.4667 97.8175 13.28C97.3375 13.0933 96.7775 13 96.1375 13C94.8042 13 93.7108 13.4267 92.8575 14.28C92.0042 15.1333 91.5775 16.4267 91.5775 18.16ZM112.187 29.4C110.321 29.4 108.641 28.96 107.147 28.08C105.654 27.2 104.467 26.0133 103.587 24.52C102.707 23 102.267 21.3067 102.267 19.44C102.267 17.6 102.707 15.9467 103.587 14.48C104.467 12.9867 105.654 11.8 107.147 10.92C108.641 10.04 110.321 9.6 112.187 9.6C114.027 9.6 115.694 10.04 117.187 10.92C118.707 11.7733 119.907 12.9467 120.787 14.44C121.667 15.9333 122.107 17.6 122.107 19.44C122.107 21.3067 121.667 23 120.787 24.52C119.907 26.0133 118.707 27.2 117.187 28.08C115.694 28.96 114.027 29.4 112.187 29.4ZM112.187 25.92C113.387 25.92 114.454 25.64 115.387 25.08C116.321 24.52 117.054 23.76 117.587 22.8C118.121 21.8133 118.387 20.6933 118.387 19.44C118.387 18.2133 118.107 17.12 117.547 16.16C117.014 15.2 116.281 14.4533 115.347 13.92C114.441 13.36 113.387 13.08 112.187 13.08C110.987 13.08 109.921 13.36 108.987 13.92C108.054 14.4533 107.321 15.2 106.787 16.16C106.254 17.12 105.987 18.2133 105.987 19.44C105.987 20.6933 106.254 21.8133 106.787 22.8C107.321 23.76 108.054 24.52 108.987 25.08C109.921 25.64 110.987 25.92 112.187 25.92ZM126.263 29V0.439998H129.863V29H126.263Z" fill="white"/>
</svg>
